<svg width="67" height="38" viewBox="0 0 67 38" fill="none" xmlns="http://www.w3.org/2000/svg">
<path d="M5.808 34.879C5.704 34.967 5.568 35.039 5.4 35.095C5.24 35.143 5.052 35.167 4.836 35.167C4.548 35.167 4.308 35.131 4.116 35.059C3.932 34.987 3.812 34.863 3.756 34.687C3.532 33.983 3.348 33.415 3.204 32.983C3.06 32.543 2.948 32.159 2.868 31.831H2.808C2.784 32.303 2.764 32.735 2.748 33.127C2.74 33.511 2.732 33.887 2.724 34.255C2.724 34.623 2.716 34.995 2.7 35.371C2.692 35.747 2.676 36.163 2.652 36.619C2.548 36.659 2.412 36.691 2.244 36.715C2.076 36.747 1.908 36.763 1.74 36.763C1.388 36.763 1.112 36.707 0.912 36.595C0.72 36.483 0.624 36.279 0.624 35.983L0.972 29.863C1.036 29.759 1.176 29.647 1.392 29.527C1.608 29.407 1.912 29.347 2.304 29.347C2.728 29.347 3.06 29.415 3.3 29.551C3.54 29.679 3.716 29.891 3.828 30.187C3.9 30.379 3.976 30.599 4.056 30.847C4.144 31.095 4.228 31.351 4.308 31.615C4.396 31.879 4.48 32.143 4.56 32.407C4.64 32.663 4.712 32.895 4.776 33.103H4.836C5.028 32.431 5.22 31.783 5.412 31.159C5.604 30.527 5.78 29.999 5.94 29.575C6.06 29.511 6.212 29.459 6.396 29.419C6.588 29.371 6.8 29.347 7.032 29.347C7.424 29.347 7.744 29.407 7.992 29.527C8.24 29.639 8.384 29.803 8.424 30.019C8.456 30.179 8.488 30.427 8.52 30.763C8.56 31.091 8.6 31.463 8.64 31.879C8.68 32.295 8.72 32.735 8.76 33.199C8.8 33.663 8.836 34.111 8.868 34.543C8.908 34.967 8.94 35.359 8.964 35.719C8.988 36.071 9.004 36.343 9.012 36.535C8.876 36.615 8.732 36.671 8.58 36.703C8.436 36.743 8.248 36.763 8.016 36.763C7.712 36.763 7.456 36.711 7.248 36.607C7.04 36.503 6.928 36.299 6.912 35.995C6.864 35.123 6.832 34.339 6.816 33.643C6.808 32.947 6.792 32.363 6.768 31.891H6.708C6.628 32.203 6.512 32.595 6.36 33.067C6.208 33.539 6.024 34.143 5.808 34.879ZM9.20391 33.019C9.20391 32.395 9.29991 31.843 9.49191 31.363C9.69191 30.883 9.95991 30.483 10.2959 30.163C10.6399 29.835 11.0399 29.587 11.4959 29.419C11.9599 29.251 12.4599 29.167 12.9959 29.167C13.5319 29.167 14.0279 29.251 14.4839 29.419C14.9479 29.587 15.3519 29.835 15.6959 30.163C16.0399 30.483 16.3079 30.883 16.4999 31.363C16.6999 31.843 16.7999 32.395 16.7999 33.019C16.7999 33.643 16.7039 34.199 16.5119 34.687C16.3199 35.167 16.0519 35.571 15.7079 35.899C15.3719 36.219 14.9719 36.463 14.5079 36.631C14.0439 36.799 13.5399 36.883 12.9959 36.883C12.4519 36.883 11.9479 36.799 11.4839 36.631C11.0199 36.455 10.6199 36.203 10.2839 35.875C9.94791 35.547 9.68391 35.143 9.49191 34.663C9.29991 34.183 9.20391 33.635 9.20391 33.019ZM11.3639 33.019C11.3639 33.747 11.5119 34.291 11.8079 34.651C12.1039 35.011 12.4999 35.191 12.9959 35.191C13.4999 35.191 13.8999 35.011 14.1959 34.651C14.4919 34.291 14.6399 33.747 14.6399 33.019C14.6399 32.299 14.4919 31.759 14.1959 31.399C13.9079 31.039 13.5119 30.859 13.0079 30.859C12.5119 30.859 12.1119 31.039 11.8079 31.399C11.5119 31.751 11.3639 32.291 11.3639 33.019ZM19.3454 33.775C18.9934 33.655 18.6734 33.535 18.3854 33.415C18.0974 33.287 17.8494 33.135 17.6414 32.959C17.4334 32.783 17.2694 32.575 17.1494 32.335C17.0374 32.087 16.9814 31.787 16.9814 31.435C16.9814 30.755 17.2414 30.211 17.7614 29.803C18.2894 29.395 19.0254 29.191 19.9694 29.191C20.3134 29.191 20.6334 29.215 20.9294 29.263C21.2254 29.311 21.4774 29.387 21.6854 29.491C21.9014 29.587 22.0694 29.715 22.1894 29.875C22.3094 30.027 22.3694 30.207 22.3694 30.415C22.3694 30.623 22.3214 30.803 22.2254 30.955C22.1294 31.099 22.0134 31.223 21.8774 31.327C21.7014 31.215 21.4654 31.119 21.1694 31.039C20.8734 30.951 20.5494 30.907 20.1974 30.907C19.8374 30.907 19.5734 30.959 19.4054 31.063C19.2374 31.159 19.1534 31.283 19.1534 31.435C19.1534 31.555 19.2054 31.655 19.3094 31.735C19.4134 31.807 19.5694 31.875 19.7774 31.939L20.4134 32.143C21.1654 32.383 21.7414 32.691 22.1414 33.067C22.5494 33.435 22.7534 33.939 22.7534 34.579C22.7534 35.259 22.4854 35.811 21.9494 36.235C21.4134 36.651 20.6254 36.859 19.5854 36.859C19.2174 36.859 18.8734 36.827 18.5534 36.763C18.2414 36.707 17.9654 36.623 17.7254 36.511C17.4934 36.391 17.3094 36.247 17.1734 36.079C17.0454 35.903 16.9814 35.703 16.9814 35.479C16.9814 35.247 17.0494 35.051 17.1854 34.891C17.3214 34.723 17.4694 34.595 17.6294 34.507C17.8534 34.683 18.1254 34.835 18.4454 34.963C18.7734 35.091 19.1294 35.155 19.5134 35.155C19.9054 35.155 20.1814 35.095 20.3414 34.975C20.5014 34.855 20.5814 34.715 20.5814 34.555C20.5814 34.395 20.5174 34.275 20.3894 34.195C20.2614 34.107 20.0814 34.023 19.8494 33.943L19.3454 33.775ZM26.8931 35.167C27.0051 35.199 27.1491 35.223 27.3251 35.239C27.5011 35.247 27.6691 35.251 27.8291 35.251C28.1491 35.251 28.4131 35.187 28.6211 35.059C28.8371 34.923 28.9451 34.715 28.9451 34.435C28.9451 34.171 28.8571 33.983 28.6811 33.871C28.5051 33.759 28.2371 33.703 27.8771 33.703H26.8931V35.167ZM26.8931 32.239H27.7691C28.1131 32.239 28.3611 32.175 28.5131 32.047C28.6731 31.919 28.7531 31.731 28.7531 31.483C28.7531 31.267 28.6611 31.095 28.4771 30.967C28.3011 30.839 28.0331 30.775 27.6731 30.775C27.5531 30.775 27.4131 30.779 27.2531 30.787C27.1011 30.795 26.9811 30.807 26.8931 30.823V32.239ZM27.6731 36.859C27.5371 36.859 27.3771 36.855 27.1931 36.847C27.0091 36.839 26.8171 36.823 26.6171 36.799C26.4251 36.775 26.2331 36.743 26.0411 36.703C25.8491 36.671 25.6731 36.623 25.5131 36.559C25.0731 36.391 24.8531 36.099 24.8531 35.683V30.079C24.8531 29.911 24.8971 29.783 24.9851 29.695C25.0811 29.599 25.2091 29.523 25.3691 29.467C25.6411 29.371 25.9811 29.303 26.3891 29.263C26.7971 29.215 27.2171 29.191 27.6491 29.191C28.6731 29.191 29.4611 29.363 30.0131 29.707C30.5651 30.051 30.8411 30.583 30.8411 31.303C30.8411 31.663 30.7371 31.975 30.5291 32.239C30.3211 32.495 30.0411 32.683 29.6891 32.803C30.0891 32.915 30.4211 33.119 30.6851 33.415C30.9571 33.711 31.0931 34.083 31.0931 34.531C31.0931 35.323 30.7971 35.911 30.2051 36.295C29.6211 36.671 28.7771 36.859 27.6731 36.859ZM38.0068 33.979C38.0068 34.411 37.9308 34.807 37.7788 35.167C37.6348 35.519 37.4228 35.823 37.1428 36.079C36.8628 36.327 36.5228 36.519 36.1228 36.655C35.7228 36.791 35.2708 36.859 34.7668 36.859C34.2628 36.859 33.8108 36.791 33.4108 36.655C33.0108 36.519 32.6708 36.327 32.3908 36.079C32.1108 35.823 31.8948 35.519 31.7428 35.167C31.5988 34.807 31.5268 34.411 31.5268 33.979V29.395C31.6148 29.379 31.7548 29.359 31.9468 29.335C32.1388 29.303 32.3228 29.287 32.4988 29.287C32.6828 29.287 32.8428 29.303 32.9788 29.335C33.1228 29.359 33.2428 29.407 33.3388 29.479C33.4348 29.551 33.5068 29.651 33.5548 29.779C33.6028 29.907 33.6268 30.075 33.6268 30.283V33.943C33.6268 34.327 33.7308 34.627 33.9388 34.843C34.1548 35.059 34.4308 35.167 34.7668 35.167C35.1108 35.167 35.3868 35.059 35.5948 34.843C35.8028 34.627 35.9068 34.327 35.9068 33.943V29.395C35.9948 29.379 36.1348 29.359 36.3268 29.335C36.5188 29.303 36.7028 29.287 36.8788 29.287C37.0628 29.287 37.2228 29.303 37.3588 29.335C37.5028 29.359 37.6228 29.407 37.7188 29.479C37.8148 29.551 37.8868 29.651 37.9348 29.779C37.9828 29.907 38.0068 30.075 38.0068 30.283V33.979ZM40.8996 34.315V36.619C40.8116 36.643 40.6716 36.667 40.4796 36.691C40.2956 36.715 40.1116 36.727 39.9276 36.727C39.7436 36.727 39.5796 36.711 39.4356 36.679C39.2996 36.655 39.1836 36.607 39.0876 36.535C38.9996 36.463 38.9316 36.363 38.8836 36.235C38.8356 36.107 38.8116 35.939 38.8116 35.731V30.079C38.8116 29.911 38.8556 29.783 38.9436 29.695C39.0396 29.599 39.1676 29.523 39.3276 29.467C39.5996 29.371 39.9156 29.303 40.2756 29.263C40.6356 29.215 41.0196 29.191 41.4276 29.191C42.5316 29.191 43.3636 29.423 43.9236 29.887C44.4836 30.351 44.7636 30.979 44.7636 31.771C44.7636 32.267 44.6356 32.691 44.3796 33.043C44.1236 33.395 43.8196 33.667 43.4676 33.859C43.7556 34.251 44.0396 34.619 44.3196 34.963C44.5996 35.307 44.8196 35.619 44.9796 35.899C44.8996 36.179 44.7516 36.395 44.5356 36.547C44.3276 36.691 44.0916 36.763 43.8276 36.763C43.6516 36.763 43.4996 36.743 43.3716 36.703C43.2436 36.663 43.1316 36.607 43.0356 36.535C42.9396 36.463 42.8516 36.375 42.7716 36.271C42.6916 36.167 42.6156 36.055 42.5436 35.935L41.5356 34.315H40.8996ZM41.6556 32.719C41.9596 32.719 42.1996 32.643 42.3756 32.491C42.5516 32.331 42.6396 32.099 42.6396 31.795C42.6396 31.491 42.5396 31.263 42.3396 31.111C42.1476 30.951 41.8396 30.871 41.4156 30.871C41.2956 30.871 41.1996 30.875 41.1276 30.883C41.0556 30.891 40.9756 30.903 40.8876 30.919V32.719H41.6556ZM51.8983 35.479C51.8983 35.727 51.8543 35.911 51.7663 36.031C51.6783 36.151 51.5383 36.267 51.3463 36.379C51.2343 36.443 51.0943 36.507 50.9263 36.571C50.7583 36.627 50.5743 36.675 50.3743 36.715C50.1743 36.763 49.9623 36.799 49.7383 36.823C49.5223 36.847 49.3063 36.859 49.0903 36.859C48.5143 36.859 47.9743 36.783 47.4703 36.631C46.9663 36.471 46.5263 36.235 46.1503 35.923C45.7823 35.603 45.4903 35.207 45.2743 34.735C45.0583 34.263 44.9503 33.715 44.9503 33.091C44.9503 32.435 45.0663 31.863 45.2983 31.375C45.5383 30.887 45.8503 30.483 46.2343 30.163C46.6263 29.835 47.0703 29.591 47.5663 29.431C48.0703 29.271 48.5863 29.191 49.1143 29.191C49.8743 29.191 50.4743 29.315 50.9143 29.563C51.3623 29.803 51.5863 30.119 51.5863 30.511C51.5863 30.719 51.5343 30.899 51.4303 31.051C51.3263 31.203 51.2063 31.323 51.0703 31.411C50.8703 31.291 50.6183 31.175 50.3143 31.063C50.0183 30.943 49.6823 30.883 49.3063 30.883C48.6343 30.883 48.0983 31.075 47.6983 31.459C47.3063 31.843 47.1103 32.375 47.1103 33.055C47.1103 33.423 47.1623 33.743 47.2663 34.015C47.3783 34.279 47.5263 34.499 47.7103 34.675C47.8943 34.843 48.1063 34.971 48.3463 35.059C48.5863 35.139 48.8423 35.179 49.1143 35.179C49.2903 35.179 49.4463 35.163 49.5823 35.131C49.7183 35.099 49.8223 35.063 49.8943 35.023V33.895H48.6103C48.5623 33.807 48.5143 33.691 48.4663 33.547C48.4263 33.403 48.4063 33.251 48.4063 33.091C48.4063 32.803 48.4703 32.595 48.5983 32.467C48.7343 32.339 48.9063 32.275 49.1143 32.275H51.1423C51.3823 32.275 51.5663 32.343 51.6943 32.479C51.8303 32.607 51.8983 32.791 51.8983 33.031V35.479ZM52.5591 30.511C52.5591 30.167 52.6591 29.895 52.8591 29.695C53.0591 29.495 53.3311 29.395 53.6751 29.395H57.6351C57.6911 29.483 57.7391 29.599 57.7791 29.743C57.8271 29.887 57.8511 30.039 57.8511 30.199C57.8511 30.503 57.7831 30.719 57.6471 30.847C57.5191 30.975 57.3471 31.039 57.1311 31.039H54.5991V32.155H57.2991C57.3551 32.243 57.4031 32.359 57.4431 32.503C57.4911 32.639 57.5151 32.787 57.5151 32.947C57.5151 33.251 57.4511 33.467 57.3231 33.595C57.1951 33.723 57.0231 33.787 56.8071 33.787H54.5991V35.047H57.6831C57.7391 35.135 57.7871 35.251 57.8271 35.395C57.8751 35.539 57.8991 35.691 57.8991 35.851C57.8991 36.155 57.8311 36.375 57.6951 36.511C57.5671 36.639 57.3951 36.703 57.1791 36.703H53.6751C53.3311 36.703 53.0591 36.603 52.8591 36.403C52.6591 36.203 52.5591 35.931 52.5591 35.587V30.511ZM60.5013 34.315V36.619C60.4133 36.643 60.2733 36.667 60.0813 36.691C59.8973 36.715 59.7133 36.727 59.5293 36.727C59.3453 36.727 59.1813 36.711 59.0373 36.679C58.9013 36.655 58.7853 36.607 58.6893 36.535C58.6013 36.463 58.5333 36.363 58.4853 36.235C58.4373 36.107 58.4133 35.939 58.4133 35.731V30.079C58.4133 29.911 58.4573 29.783 58.5453 29.695C58.6413 29.599 58.7693 29.523 58.9293 29.467C59.2013 29.371 59.5173 29.303 59.8773 29.263C60.2373 29.215 60.6213 29.191 61.0293 29.191C62.1333 29.191 62.9653 29.423 63.5253 29.887C64.0853 30.351 64.3653 30.979 64.3653 31.771C64.3653 32.267 64.2373 32.691 63.9813 33.043C63.7253 33.395 63.4213 33.667 63.0693 33.859C63.3573 34.251 63.6413 34.619 63.9213 34.963C64.2013 35.307 64.4213 35.619 64.5813 35.899C64.5013 36.179 64.3533 36.395 64.1373 36.547C63.9293 36.691 63.6933 36.763 63.4293 36.763C63.2533 36.763 63.1013 36.743 62.9733 36.703C62.8453 36.663 62.7333 36.607 62.6373 36.535C62.5413 36.463 62.4533 36.375 62.3733 36.271C62.2933 36.167 62.2173 36.055 62.1453 35.935L61.1373 34.315H60.5013ZM61.2573 32.719C61.5613 32.719 61.8013 32.643 61.9773 32.491C62.1533 32.331 62.2413 32.099 62.2413 31.795C62.2413 31.491 62.1413 31.263 61.9413 31.111C61.7493 30.951 61.4413 30.871 61.0173 30.871C60.8973 30.871 60.8013 30.875 60.7293 30.883C60.6573 30.891 60.5773 30.903 60.4893 30.919V32.719H61.2573Z" fill="#D61917"/>
<rect x="19.02" y="5.1875" width="11.1942" height="26.3776" rx="5.59709" transform="rotate(-27.6057 19.02 5.1875)" fill="#D61917"/>
<rect x="33.083" y="5.38574" width="11.1942" height="26.3776" rx="5.59709" transform="rotate(-27.6057 33.083 5.38574)" fill="#D61917"/>
<path fill-rule="evenodd" clip-rule="evenodd" d="M19.8924 9.24316L14.9666 18.9675C13.5697 21.7251 14.6728 25.093 17.4304 26.4898C20.188 27.8866 23.5558 26.7835 24.9527 24.0259L26.1595 21.6435L19.8924 9.24316Z" fill="#D61917"/>
</svg>
